<svg xmlns="http://www.w3.org/2000/svg" width="395.945" height="1106.142" viewBox="0 0 371.199 1037.008" id="svg4504"><g id="layer1" transform="translate(845.6 403.285)"><g transform="matrix(1.25 0 0 1.25 -1684.08 -1221.026)" id="g156286"><path style="opacity:1;fill:#040201;stroke:#040201;stroke-width:1.6px;stroke-miterlimit:4;stroke-dasharray:none" id="path156091" d="M769.34 679.33c32.89-17.06 71.14-30.95 108.35-21 17.25 6.7 32.28 18.91 44.12 32.97 4.49 4.18 4.58 14-3.11 13.69-22.01-2.95-44.86 3.78-62.38 17.23-5.71 4.5-11.72 12.64-7.75 20.07 7.55 16.82 29.4 19.68 37.92 35.64 6.2 17.51-19.73 29.89-10.9 46.39 21.81 14.2 50.26 12.62 72.45 26.64 13.82 4.29 21.17 19.4 18.28 33.21-3.11 24.37-20.58 43.02-28.77 65.45-7.3 24.08 18.4 44.44 9.99 68.78-.94 12.77-15.74 18.24-16.62 30.55-16.75 121.93-43.8 242.56-82.56 359.41-8.7 24.34-7.37 51.82-20.52 74.64h-.9c-46.18-141.07-75.66-286.9-120.56-428.34-1.9-12.12-16.63-15.39-20.36-26.73-13.47-26.69-3.78-58.49 15.61-79.38-3.1-14.1-23.42-17.56-26.81-32.32-5.34-22.01-4.37-46.49 5.19-67.24 11.2-23.02 33.98-35.98 55.27-47.71 11.87-22.62-17.97-39.53-15.38-61.9.9-28.7 26.84-47.12 49.44-60.05m32.72-7.2c-29.7 10.24-60.74 27.77-74.97 56.94-11.38 26.87 10.99 51.15 28 69.09 4.47 8.75-7.38 12.73-13.72 14.28-32.94 6.2-56.52 37.15-62.2 68.96-4.92 24.64 12.09 49.83 35.69 56.51 4.78-2.4 9.34-6.36 15.22-6.61 21.13-4.01 45.31.27 61.03 15.75-17.32-5.07-35.45-7.75-53.33-4.12-41.02 3.32-68.9 61.84-40.1 93.21 2.63 3.51 3.13 1.23 2.83-1.6 18.49-9.86 40.78-14.21 60.41-15.47 43 .74 85.83-5.44 128.85-3.91 11.91.76 24.9 1.34 35.08 7.65 9.68-20.93-2.82-43.95 2.45-65.49 9.62-21.9 25.55-41.89 27.44-66.55 1.01-22.16-16.85-42.06-38.52-44.98-29.95-5.16-61.91-5.15-89.48-19.52-12.32-6.7-25.45-18.68-22.06-34.22 14.95 15.07 30.54 34.7 54.64 31.69 8.01-13.99 21.99-28.71 13.18-46.15-6.91-17.54-30.23-22.2-35.02-41.03 9.23-28.95 42.17-39.73 69.72-44.33-7.68-11.01-18.85-20.72-31.82-24.12-23.13-9.69-50.86-4.96-73.32 4.02m12.8 350.11c-20.42 20.75-40.42 43.04-58.91 65.76 12.71 3.7 26.01 5.41 38.89 8.62 24.72-20.32 49.24-41.3 76.34-58.59-16.6-12.06-35.11-20.68-56.32-15.79m38.59-.23c1.7 3.64 9.68 5.65 13.6 8.95 8.47 9.31 19.15-2.84 26.73-6.13-11.78-2.82-27.06-1.51-40.33-2.82m-67.06 1.42c-29.17.19-47.35 28.96-69.11 45.09-.27 15.89 23.47 11.83 33.55 18.2 17.96-21.9 38.97-41.64 56.04-64.04-6.85.04-13.67.41-20.48.75m-24.87 1.94c-17.68 2.62-36.02 5.21-51.5 14.83 1.97 8.25 3.09 16.85 5.95 24.86 14.23-12.03 27.76-25.03 42.9-36.01-.23-.17 6.91-4.96 2.65-3.68m142.51.07c-7.64 4.18-16.86 7.26-22.98 13.5 12.86 8.15 26.55 15.71 39.71 22.97 9.29-14.16 6.63-43.59-16.73-36.47m-27.72 15.94c-26.38 16.44-51.27 35.84-74.25 56.58 20.83 4.9 41.77 9.58 62.7 13.95 18.82-13.76 36.29-29.99 52.39-46.93-13.23-8.24-27.25-16.84-40.84-23.6m43.12 30.07c-14.9 14.56-30.81 28.25-46.66 41.85 12.32 3.63 25.22 5.89 37.97 7.68 3.44-15.76 7.88-35.13 8.69-49.53m-198.63 11.86c1.89 8.57 3.6 18.16 7.6 25.47 8.05-.88 12.6-12.18 17.5-17.62-7.91-3.48-16.81-5.23-25.1-7.85m30.37 9.04c-4.73 6.51-10.66 12.08-15.27 18.68 9.62 4.62 20.04 7.73 30 11.65 8.54-6.31 15.54-14.71 24.25-20.92-12.01-4.8-26.19-5.83-38.98-9.41m45.2 9.98c-8.32 7.07-16.39 14.52-24.51 21.86 17.44 7.66 35.87 13.78 54.02 19.65 12.28-7.53 22.42-18.81 34.34-27.16-20.98-5.8-42.57-9.9-63.85-14.35m-65.02 13.88c-2.09 9.45 5.06 22.16 7.62 31.93 7.07-6.86 16.13-13.75 21.66-20.88-9.05-4.57-19.38-9.03-29.28-11.05m135.36 2.13c-11.12 9.5-23.3 18.3-33.55 28.55 18.14 5.96 35.69 13.7 53.74 19.82 5.72-2.83 11.39-5.83 16.96-8.95 2.6-10.35 4.38-21.02 6.02-31.56-14.38-2.56-28.62-6.83-43.17-7.86m-100.4 10.92c-8.53 8.5-17.91 16.13-26.08 25.01 4.26 16.63 8.93 33.26 14.27 49.61 2.37.01 5.49 1.74 7.72.43 17.79-20.36 38.59-37.8 58.95-55.52-17.98-6.97-36.44-13.75-54.86-19.53M828 1151.2c-20.78 16.81-42.16 34.03-58.69 55.09 16.15.76 31.83 6.36 47.96 6.33 20.36-14.55 41.06-28.86 62.58-41.74-15.8-8.08-34.87-13.32-51.85-19.68m71.5 15.16c-14.21 4.37 10.36 8.29 0 0m-12.18 7.06c-21.74 11.95-41.81 26.67-62.18 40.76 13.11 4.67 29.29 5.96 43.48 9.31 8.73 2.45 12.91-7.68 19.43-11.37 12.18-6.6 7.66-22 11.77-33-2.48-3.16-8.61-4.56-12.5-5.7m-123.44 37.93c-12.13 9.7 2.12 27.42 4.08 39.72 14.54-10.21 28.06-21.84 42.36-32.41-15.13-3.62-30.86-6.78-46.44-7.31m128.12 4.99c-2.4 2.52-16.08 8.87-7.61 10.33 7.85 4.7 6.66-5.5 7.61-10.33m-74.32 3.94c-16.73 11.98-33.4 24.89-48.66 38.63 14.05 8.39 28.77 15.82 43.11 23.76 18.87-17.43 36.63-36.44 55.65-53.68-16.75-2.46-33.17-8.21-50.1-8.71m57 11.03c-20.1 16.42-39.61 34.75-56.58 54.56 11.77 6.72 23.87 12.91 35.81 19.36 7.18 5.21 13.84-5.01 19.89-7.69 5.87-21.25 10.21-42.93 14.97-64.46-4.56-1.36-9.32-2.37-14.09-1.77m-102.51 36.6c4.88 15.46 7.76 32.22 13.68 46.92 6.42-10.22 15.61-18.32 22.98-27.71-11.78-7.11-24.19-13.39-36.66-19.21m41.19 22.27c-8.59 10.41-18.6 19.83-26.06 31.09 2.12 10.29 5.58 21.14 8.62 30.68 18.93-13.65 37.5-28.4 56.88-41.14-11.52-7.1-26.13-15.32-39.44-20.63m58.04 14.3c-2.79 1.64-12.33 5.28-5.17 7.3 5.28 5.38 7.59-8.29 5.17-7.3m-13.62 8.88c-20.99 13.07-40.42 28.49-59.8 43.8 18.69 5.49 37.58 11.92 56.66 15.64 4.94-16.73 9.34-33.66 13.64-50.57 2.69-6.25-7.01-6.56-10.5-8.87m-58.96 48.87c7.47 17.88 3.02 46.59 25.97 52.47 10.34-11.67 28.55-19.51 28.11-37.4-18.15-4.57-35.98-10.33-54.08-15.07m47.63 37.28c-4.12 6.28-25.73 15.8-12.61 20.52 10.08 8.38 9.99-17.14 12.61-20.52m-34.34 12.48c1.32 4.69 1.16 16.46 6.84 8.83 7.43-4.42-3.24-7.01-6.84-8.83m13.23 7.12c-17.19 10.2-.47 29.66-.38 44.78 6.44-10.88 8.87-25.5 13.89-37.64-3.99-3.2-8.69-5.51-13.51-7.14z"/><path style="opacity:1;fill:#f1f94f;stroke:#f1f94f;stroke-width:1.6px;stroke-miterlimit:4;stroke-dasharray:none" id="path156093" d="M802.06 672.13c22.46-8.98 50.19-13.71 73.32-4.02-16.17 3.78-33.15.78-49.51 3.84 9.69-4.38 22.45-.36 31.25-4.06-18.63-.17-37.24-2.27-55.06 4.24z"/><path style="opacity:1;fill:#f1fa3f;stroke:#f1fa3f;stroke-width:1.6px;stroke-miterlimit:4;stroke-dasharray:none" id="path156095" d="M802.06 672.13c17.82-6.51 36.43-4.41 55.06-4.24-8.8 3.7-21.56-.32-31.25 4.06-28.84 4.95-64.78 17.77-71.2 49.93-4.51 24.02 17.81 39.88 25.51 60.09 2.87 20.85-20.16 31.01-34.89 40.32-20.65 10.26-29.71 37.24-19.53 57.85-4.19 15.64-15.06 41.73 4.32 51.16-5.88.25-10.44 4.21-15.22 6.61-23.6-6.68-40.61-31.87-35.69-56.51 5.68-31.81 29.26-62.76 62.2-68.96 6.34-1.55 18.19-5.53 13.72-14.28-17.01-17.94-39.38-42.22-28-69.09 14.23-29.17 45.27-46.7 74.97-56.94z"/><path style="opacity:1;fill:#fdfed4;stroke:#fdfed4;stroke-width:1.6px;stroke-miterlimit:4;stroke-dasharray:none" id="path156097" d="M825.87 671.95c16.36-3.06 33.34-.06 49.51-3.84 12.97 3.4 24.14 13.11 31.82 24.12-27.55 4.6-60.49 15.38-69.72 44.33 4.79 18.83 28.11 23.49 35.02 41.03 8.81 17.44-5.17 32.16-13.18 46.15-24.1 3.01-39.69-16.62-54.64-31.69-3.39 15.54 9.74 27.52 22.06 34.22 27.57 14.37 59.53 14.36 89.48 19.52 21.67 2.92 39.53 22.82 38.52 44.98-1.89 24.66-17.82 44.65-27.44 66.55-5.27 21.54 7.23 44.56-2.45 65.49-10.18-6.31-23.17-6.89-35.08-7.65-43.02-1.53-85.85 4.65-128.85 3.91-24.52 1.83-40.82-26.65-34.31-48.36 3.14-9.31 15.27-16.8 11.17-27.78 17.88-3.63 36.01-.95 53.33 4.12-15.72-15.48-39.9-19.76-61.03-15.75-19.38-9.43-8.51-35.52-4.32-51.16-10.18-20.61-1.12-47.59 19.53-57.85 14.73-9.31 37.76-19.47 34.89-40.32-7.7-20.21-30.02-36.07-25.51-60.09 6.42-32.16 42.36-44.98 71.2-49.93m23.48 12.28c-24.13 3.44-45.24 26.46-38.52 51.66 2.14 3.64 8.21 10.18 11.78 4.69 5.65-19.48 11.93-40.3 27.6-54.28 2.83-1.95 1.13-2.89-.86-2.07m9.02 165.79c9.51 6.31 29.54 6.43 38.35 19.24 10.73 13.96 2.98 33.7 11.18 48.79 4.42 7.18 15.48 8.16 20.78 1.62 9.78-14.2 14.55-36.45-.07-49.37-19.4-15.95-45.79-20.57-70.24-20.28z"/><path style="opacity:1;fill:#fffffd;stroke:#fffffd;stroke-width:1.6px;stroke-miterlimit:4;stroke-dasharray:none" id="path156099" d="M849.35 684.23c1.99-.82 3.69.12.86 2.07-15.67 13.98-21.95 34.8-27.6 54.28-3.57 5.49-9.64-1.05-11.78-4.69-6.72-25.2 14.39-48.22 38.52-51.66z"/><path style="opacity:1;fill:#fffffe;stroke:#fffffe;stroke-width:1.6px;stroke-miterlimit:4;stroke-dasharray:none" id="path156111" d="M858.37 850.02c24.45-.29 50.84 4.33 70.24 20.28 14.62 12.92 9.85 35.17.07 49.37-5.3 6.54-16.36 5.56-20.78-1.62-8.2-15.09-.45-34.83-11.18-48.79-8.81-12.81-28.84-12.93-38.35-19.24z"/><path style="opacity:1;fill:#f1fa3f;stroke:#f1fa3f;stroke-width:1.6px;stroke-miterlimit:4;stroke-dasharray:none" id="path156117" d="M697.68 1036.14c-28.8-31.37-.92-89.89 40.1-93.21 4.1 10.98-8.03 18.47-11.17 27.78-6.51 21.71 9.79 50.19 34.31 48.36-19.63 1.26-41.92 5.61-60.41 15.47.3 2.83-.2 5.11-2.83 1.6z"/><path style="opacity:1;fill:#dc7a39;stroke:#dc7a39;stroke-width:1.6px;stroke-miterlimit:4;stroke-dasharray:none" id="path156133" d="M814.86 1022.24c21.21-4.89 39.72 3.73 56.32 15.79-27.1 17.29-51.62 38.27-76.34 58.59-12.88-3.21-26.18-4.92-38.89-8.62 18.49-22.72 38.49-45.01 58.91-65.76z"/><path style="opacity:1;fill:#d97d3e;stroke:#d97d3e;stroke-width:1.6px;stroke-miterlimit:4;stroke-dasharray:none" id="path156135" d="M853.45 1022.01c13.27 1.31 28.55 0 40.33 2.82-7.58 3.29-18.26 15.44-26.73 6.13-3.92-3.3-11.9-5.31-13.6-8.95z"/><path style="opacity:1;fill:#dc7a39;stroke:#dc7a39;stroke-width:1.6px;stroke-miterlimit:4;stroke-dasharray:none" id="path156137" d="M786.39 1023.43c6.81-.34 13.63-.71 20.48-.75-17.07 22.4-38.08 42.14-56.04 64.04-10.08-6.37-33.82-2.31-33.55-18.2 21.76-16.13 39.94-44.9 69.11-45.09z"/><path style="opacity:1;fill:#db7b3a;stroke:#db7b3a;stroke-width:1.6px;stroke-miterlimit:4;stroke-dasharray:none" id="path156139" d="M761.52 1025.37c4.26-1.28-2.88 3.51-2.65 3.68-15.14 10.98-28.67 23.98-42.9 36.01-2.86-8.01-3.98-16.61-5.95-24.86 15.48-9.62 33.82-12.21 51.5-14.83z"/><path style="opacity:1;fill:#db7b3a;stroke:#db7b3a;stroke-width:1.6px;stroke-miterlimit:4;stroke-dasharray:none" id="path156141" d="M904.03 1025.44c23.36-7.12 26.02 22.31 16.73 36.47-13.16-7.26-26.85-14.82-39.71-22.97 6.12-6.24 15.34-9.32 22.98-13.5z"/><path style="opacity:1;fill:#dc7a39;stroke:#dc7a39;stroke-width:1.6px;stroke-miterlimit:4;stroke-dasharray:none" id="path156143" d="M876.31 1041.38c13.59 6.76 27.61 15.36 40.84 23.6-16.1 16.94-33.57 33.17-52.39 46.93-20.93-4.37-41.87-9.05-62.7-13.95 22.98-20.74 47.87-40.14 74.25-56.58z"/><path style="opacity:1;fill:#db7b3a;stroke:#db7b3a;stroke-width:1.6px;stroke-miterlimit:4;stroke-dasharray:none" id="path156145" d="M919.43 1071.45c-.81 14.4-5.25 33.77-8.69 49.53-12.75-1.79-25.65-4.05-37.97-7.68 15.85-13.6 31.76-27.29 46.66-41.85z"/><path style="opacity:1;fill:#da7b3d;stroke:#da7b3d;stroke-width:1.6px;stroke-miterlimit:4;stroke-dasharray:none" id="path156147" d="M720.8 1083.31c8.29 2.62 17.19 4.37 25.1 7.85-4.9 5.44-9.45 16.74-17.5 17.62-4-7.31-5.71-16.9-7.6-25.47z"/><path style="opacity:1;fill:#db7b3a;stroke:#db7b3a;stroke-width:1.6px;stroke-miterlimit:4;stroke-dasharray:none" id="path156149" d="M751.17 1092.35c12.79 3.58 26.97 4.61 38.98 9.41-8.71 6.21-15.71 14.61-24.25 20.92-9.96-3.92-20.38-7.03-30-11.65 4.61-6.6 10.54-12.17 15.27-18.68z"/><path style="opacity:1;fill:#dc7a39;stroke:#dc7a39;stroke-width:1.6px;stroke-miterlimit:4;stroke-dasharray:none" id="path156151" d="M796.37 1102.33c21.28 4.45 42.87 8.55 63.85 14.35-11.92 8.35-22.06 19.63-34.34 27.16-18.15-5.87-36.58-11.99-54.02-19.65 8.12-7.34 16.19-14.79 24.51-21.86z"/><path style="opacity:1;fill:#db7b3b;stroke:#db7b3b;stroke-width:1.6px;stroke-miterlimit:4;stroke-dasharray:none" id="path156153" d="M731.35 1116.21c9.9 2.02 20.23 6.48 29.28 11.05-5.53 7.13-14.59 14.02-21.66 20.88-2.56-9.77-9.71-22.48-7.62-31.93z"/><path style="opacity:1;fill:#dc7a39;stroke:#dc7a39;stroke-width:1.6px;stroke-miterlimit:4;stroke-dasharray:none" id="path156155" d="M866.71 1118.34c14.55 1.03 28.79 5.3 43.17 7.86-1.64 10.54-3.42 21.21-6.02 31.56-5.57 3.12-11.24 6.12-16.96 8.95-18.05-6.12-35.6-13.86-53.74-19.82 10.25-10.25 22.43-19.05 33.55-28.55z"/><path style="opacity:1;fill:#dc7a39;stroke:#dc7a39;stroke-width:1.6px;stroke-miterlimit:4;stroke-dasharray:none" id="path156159" d="M766.31 1129.26c18.42 5.78 36.88 12.56 54.86 19.53-20.36 17.72-41.16 35.16-58.95 55.52-2.23 1.31-5.35-.42-7.72-.43-5.34-16.35-10.01-32.98-14.27-49.61 8.17-8.88 17.55-16.51 26.08-25.01z"/><path style="opacity:1;fill:#dc7a39;stroke:#dc7a39;stroke-width:1.6px;stroke-miterlimit:4;stroke-dasharray:none" id="path156161" d="M828 1151.2c16.98 6.36 36.05 11.6 51.85 19.68-21.52 12.88-42.22 27.19-62.58 41.74-16.13.03-31.81-5.57-47.96-6.33 16.53-21.06 37.91-38.28 58.69-55.09z"/><path style="opacity:1;fill:#cd8251;stroke:#cd8251;stroke-width:1.6px;stroke-miterlimit:4;stroke-dasharray:none" id="path156163" d="M899.5 1166.36c10.36 8.29-14.21 4.37 0 0z"/><path style="opacity:1;fill:#dc7a39;stroke:#dc7a39;stroke-width:1.6px;stroke-miterlimit:4;stroke-dasharray:none" id="path156165" d="M887.32 1173.42c3.89 1.14 10.02 2.54 12.5 5.7-4.11 11 .41 26.4-11.77 33-6.52 3.69-10.7 13.82-19.43 11.37-14.19-3.35-30.37-4.64-43.48-9.31 20.37-14.09 40.44-28.81 62.18-40.76z"/><path style="opacity:1;fill:#db7a3a;stroke:#db7a3a;stroke-width:1.6px;stroke-miterlimit:4;stroke-dasharray:none" id="path156167" d="M763.88 1211.35c15.58.53 31.31 3.69 46.44 7.31-14.3 10.57-27.82 22.2-42.36 32.41-1.96-12.3-16.21-30.02-4.08-39.72z"/><path style="opacity:1;fill:#d47e45;stroke:#d47e45;stroke-width:1.6px;stroke-miterlimit:4;stroke-dasharray:none" id="path156169" d="M892 1216.34c-.95 4.83.24 15.03-7.61 10.33-8.47-1.46 5.21-7.81 7.61-10.33z"/><path style="opacity:1;fill:#dc7a39;stroke:#dc7a39;stroke-width:1.6px;stroke-miterlimit:4;stroke-dasharray:none" id="path156171" d="M817.68 1220.28c16.93.5 33.35 6.25 50.1 8.71-19.02 17.24-36.78 36.25-55.65 53.68-14.34-7.94-29.06-15.37-43.11-23.76 15.26-13.74 31.93-26.65 48.66-38.63z"/><path style="opacity:1;fill:#dc7a39;stroke:#dc7a39;stroke-width:1.6px;stroke-miterlimit:4;stroke-dasharray:none" id="path156173" d="M874.68 1231.31c4.77-.6 9.53.41 14.09 1.77-4.76 21.53-9.1 43.21-14.97 64.46-6.05 2.68-12.71 12.9-19.89 7.69-11.94-6.45-24.04-12.64-35.81-19.36 16.97-19.81 36.48-38.14 56.58-54.56z"/><path style="opacity:1;fill:#db7b3a;stroke:#db7b3a;stroke-width:1.6px;stroke-miterlimit:4;stroke-dasharray:none" id="path156175" d="M772.17 1267.91c12.47 5.82 24.88 12.1 36.66 19.21-7.37 9.39-16.56 17.49-22.98 27.71-5.92-14.7-8.8-31.46-13.68-46.92z"/><path style="opacity:1;fill:#dc7a39;stroke:#dc7a39;stroke-width:1.6px;stroke-miterlimit:4;stroke-dasharray:none" id="path156177" d="M813.36 1290.18c13.31 5.31 27.92 13.53 39.44 20.63-19.38 12.74-37.95 27.49-56.88 41.14-3.04-9.54-6.5-20.39-8.62-30.68 7.46-11.26 17.47-20.68 26.06-31.09z"/><path style="opacity:1;fill:#ce814c;stroke:#ce814c;stroke-width:1.6px;stroke-miterlimit:4;stroke-dasharray:none" id="path156179" d="M871.4 1304.48c2.42-.99.11 12.68-5.17 7.3-7.16-2.02 2.38-5.66 5.17-7.3z"/><path style="opacity:1;fill:#dc7a39;stroke:#dc7a39;stroke-width:1.6px;stroke-miterlimit:4;stroke-dasharray:none" id="path156181" d="M857.78 1313.36c3.49 2.31 13.19 2.62 10.5 8.87-4.3 16.91-8.7 33.84-13.64 50.57-19.08-3.72-37.97-10.15-56.66-15.64 19.38-15.31 38.81-30.73 59.8-43.8z"/><path style="opacity:1;fill:#dc7a39;stroke:#dc7a39;stroke-width:1.6px;stroke-miterlimit:4;stroke-dasharray:none" id="path156183" d="M798.82 1362.23c18.1 4.74 35.93 10.5 54.08 15.07.44 17.89-17.77 25.73-28.11 37.4-22.95-5.88-18.5-34.59-25.97-52.47z"/><path style="opacity:1;fill:#d77d40;stroke:#d77d40;stroke-width:1.6px;stroke-miterlimit:4;stroke-dasharray:none" id="path156185" d="M846.45 1399.51c-2.62 3.38-2.53 28.9-12.61 20.52-13.12-4.72 8.49-14.24 12.61-20.52z"/><path style="opacity:1;fill:#d48048;stroke:#d48048;stroke-width:1.6px;stroke-miterlimit:4;stroke-dasharray:none" id="path156187" d="M812.11 1411.99c3.6 1.82 14.27 4.41 6.84 8.83-5.68 7.63-5.52-4.14-6.84-8.83z"/><path style="opacity:1;fill:#da7b3c;stroke:#da7b3c;stroke-width:1.6px;stroke-miterlimit:4;stroke-dasharray:none" id="path156189" d="M825.34 1419.11c4.82 1.63 9.52 3.94 13.51 7.14-5.02 12.14-7.45 26.76-13.89 37.64-.09-15.12-16.81-34.58.38-44.78z"/></g></g></svg>