<svg aria-hidden="true" style="width:0;height:0;position:absolute;overflow:hidden" xmlns="http://www.w3.org/2000/svg"><defs><symbol id="icon-arow" viewBox="0 0 32 32"><path fill="#fff" style="fill:var(--color1,#fff)" d="M32 16c0 8.837-7.163 16-16 16S0 24.837 0 16 7.163 0 16 0s16 7.163 16 16z"/><path fill="#d41442" style="fill:var(--color2,#d41442)" d="M12.308 15.261h-.738v1.477h.738v-1.477zm7.384.739.567.473a.738.738 0 0 0 0-.945l-.567.473zm-2.509-4.165a.739.739 0 0 0-1.135.945l1.135-.946zm-1.135 7.385a.738.738 0 1 0 1.135.945l-1.135-.945zm-3.74-2.482h7.385v-1.477h-7.385v1.477zm7.952-1.211-3.077-3.692-1.135.946 3.077 3.692 1.135-.945zm-1.135 0-3.077 3.692 1.135.945 3.077-3.692-1.135-.945z"/></symbol><symbol id="icon-burger-close" viewBox="0 0 32 32"><path fill="none" stroke-width="2" d="M2 29.481 30 2.518M2.519 2l26.963 28"/></symbol><symbol id="icon-Burger-open" viewBox="0 0 32 32"><path fill="none" stroke-width="1.6" d="M0 6.4h32M0 16h32M0 25.6h32"/></symbol><symbol id="icon-facebook" viewBox="0 0 32 32"><path d="M15.972 31.515c8.569 0 15.515-6.946 15.515-15.515S24.541.485 15.972.485.457 7.431.457 16s6.946 15.515 15.515 15.515z"/><path fill="#fff" style="fill:var(--color1,#fff)" d="M20.282 15.982h-2.531v9.327h-3.835v-9.327h-1.824v-3.278h1.824v-2.121c0-1.517.716-3.892 3.869-3.892l2.841.012v3.182h-2.061c-.338 0-.813.17-.813.893v1.929h2.866l-.335 3.275z"/></symbol><symbol id="icon-github" viewBox="0 0 32 32"><path d="M32 16c0 8.837-7.163 16-16 16S0 24.837 0 16 7.163 0 16 0s16 7.163 16 16z"/><path fill="#fff" style="fill:var(--color1,#fff)" d="M16 6.588c-5.169 0-9.412 4.242-9.412 9.412 0 4.411 3.095 8.418 7.206 9.412v-3.114a2.307 2.307 0 0 1-1.197-.03c-.556-.164-1.008-.535-1.344-1.1-.214-.361-.593-.752-.988-.723l-.097-1.099c.855-.073 1.595.521 2.034 1.259.195.328.419.52.708.605.278.082.577.043.926-.08.088-.698.407-.959.649-1.326-2.451-.366-3.428-1.666-3.816-2.693-.514-1.363-.238-3.066.671-4.142.018-.021.05-.076.037-.114-.417-1.258.091-2.3.11-2.41.481.142.559-.143 2.088.786l.264.159c.111.066.076.028.186.02A7.984 7.984 0 0 1 16 11.132a8.016 8.016 0 0 1 2.002.285l.086.009c-.008-.001.023-.005.075-.036 1.911-1.157 1.842-.779 2.354-.946.018.111.519 1.169.107 2.411-.056.171 1.657 1.739.708 4.256-.388 1.027-1.365 2.328-3.816 2.693.314.479.692.734.69 1.722v3.887c4.111-.993 7.206-5 7.206-9.412 0-5.169-4.242-9.412-9.412-9.412z"/></symbol><symbol id="icon-logo" viewBox="0 0 32 32"><path fill="#d41442" style="fill:var(--color2,#d41442)" d="M32 16c0 8.837-7.163 16-16 16S0 24.837 0 16 7.163 0 16 0s16 7.163 16 16z"/><path fill="#fff" style="fill:var(--color1,#fff)" d="M10.24 28.16h1.28V32h-1.28v-3.84zm10.24 0h1.28V32h-1.28v-3.84z"/><path fill="#fff" style="fill:var(--color1,#fff)" d="M10.748 28.8h1.854v-1.28h-1.854v1.28zm8.651 0h1.854v-1.28h-1.854v1.28zm0-1.28h-6.797v1.28h6.797v-1.28zm-8.651 0c-1.673 0-3.068-1.411-3.068-3.2H6.4c0 2.453 1.926 4.48 4.348 4.48v-1.28zm13.572-3.2c0 1.789-1.394 3.2-3.068 3.2v1.28c2.422 0 4.348-2.027 4.348-4.48h-1.28zm0-4.004v4.004h1.28v-4.004h-1.28zM7.68 24.32v-4.004H6.4v4.004h1.28zM23.29 8.703zm-14.58 0zM16 5.76c2.802 0 5.272 1.318 6.778 3.327l1.024-.768c-1.745-2.33-4.594-3.84-7.802-3.84v1.28zm6.778 3.327a7.634 7.634 0 0 1 1.542 4.596h1.28a8.908 8.908 0 0 0-1.798-5.363l-1.024.768zM16 4.48c-3.208 0-6.057 1.51-7.802 3.84l1.024.768C10.728 7.079 13.198 5.761 16 5.761v-1.28zM8.198 8.32A8.91 8.91 0 0 0 6.4 13.683h1.28c0-1.712.57-3.298 1.542-4.596l-1.024-.768zm-.518 6.4v-1.037H6.4v1.037h1.28zm16.64-1.037v1.037h1.28v-1.037h-1.28zM6.4 14.72v.96h1.28v-.96H6.4zm17.92 0v.96h1.28v-.96h-1.28z"/><path fill="#fff" style="fill:var(--color1,#fff)" d="M22.471 8.027c-1.28 2.486-3.712 4.133-6.471 4.133v1.28c3.294 0 6.136-1.967 7.609-4.827l-1.138-.586zM16 12.16c-2.759 0-5.191-1.648-6.471-4.133l-1.138.586c1.473 2.86 4.315 4.827 7.609 4.827v-1.28z"/><path fill="#fff" style="fill:var(--color1,#fff)" d="M6.455 14.884zm19.09 0zm0 5.432zm-19.09 0zm14.665.164V19.2h-1.28v1.28h1.28zm-4.48 0h1.28V19.2h-1.28v1.28zM7.442 16h17.115v-2.56H7.442V16zm0-2.56c-.489 0-.962.082-1.403.233l.832 2.421A1.74 1.74 0 0 1 7.442 16v-2.56zm-1.403.233C4.406 14.234 3.2 15.764 3.2 17.6h2.56c0-.672.443-1.276 1.111-1.506l-.832-2.421zM24.558 16c.203 0 .395.034.571.094l.832-2.421a4.301 4.301 0 0 0-1.403-.233V16zm.571.094c.668.23 1.111.834 1.111 1.506h2.56c0-1.836-1.206-3.365-2.839-3.927l-.832 2.421zM26.24 17.6c0 .672-.443 1.276-1.111 1.506l.832 2.421c1.633-.561 2.839-2.091 2.839-3.927h-2.56zm-1.111 1.506a1.74 1.74 0 0 1-.571.094v2.56c.489 0 .962-.082 1.403-.233l-.832-2.421zM7.442 19.2c-.203 0-.395-.034-.571-.094l-.832 2.421c.441.152.914.233 1.403.233V19.2zm-.571-.094c-.668-.23-1.111-.834-1.111-1.506H3.2c0 1.836 1.206 3.365 2.839 3.927l.832-2.421zM19.84 20.48v1.371h2.56V20.48h-2.56zm-1.92 1.371V20.48h-2.56v1.371h2.56zm.96 1.189c-.416 0-.96-.412-.96-1.189h-2.56c0 1.95 1.462 3.749 3.52 3.749v-2.56zm.96-1.189c0 .776-.544 1.189-.96 1.189v2.56c2.058 0 3.52-1.798 3.52-3.749h-2.56zm1.28-.091h3.438V19.2H21.12v2.56zm-4.48-2.56H7.442v2.56h9.198V19.2z"/></symbol><symbol id="icon-slider-house" viewBox="0 0 32 32"><path fill="#d31342" style="fill:var(--color5,#d31342)" d="M30.129 15.447c.553-.6.5-1.52-.119-2.054L16.374 1.623c-.619-.534-1.611-.523-2.217.025L.475 14.02a1.414 1.414 0 0 0-.066 2.051l.343.352c.569.584 1.489.654 2.053.155l1.023-.903v13.224c0 .811.667 1.468 1.488 1.468h5.333c.822 0 1.488-.657 1.488-1.468v-9.252h6.803v9.252c-.012.811.576 1.468 1.398 1.468h5.652c.822 0 1.488-.657 1.488-1.468V15.861l.631.546c.349.302 1.078.06 1.631-.541l.388-.42z"/></symbol><symbol id="icon-telegram" viewBox="0 0 32 32"><path d="M31.258 16c0 8.569-6.946 15.515-15.515 15.515S.228 24.569.228 16 7.174.485 15.743.485 31.258 7.431 31.258 16z"/><path fill="#fff" style="fill:var(--color1,#fff)" d="m12.705 18.303-.308 4.043c.441 0 .631-.177.86-.389l2.066-1.843 4.281 2.926c.785.408 1.338.193 1.55-.674l2.811-12.289c.249-1.083-.42-1.507-1.185-1.241L6.264 14.738c-1.127.408-1.11.995-.192 1.261l4.223 1.226 9.808-5.728c.462-.285.881-.127.536.158l-7.934 6.649z"/></symbol><symbol id="icon-Vector" viewBox="0 0 32 32"><path fill="none" stroke-linejoin="round" stroke-linecap="round" stroke-width="6.4" d="m9.345 3.2 13.7 12.8-13.7 12.8"/></symbol><symbol id="icon-btn-arrow" viewBox="0 0 22 32"><path d="M4.493.07c-.477.218-1.235.874-1.658 1.434-.464.614-.653 1.165-.621 1.818.026.55.208 1.027.598 1.558.106.141 1.968 2.022 4.205 4.246 2.208 2.195 4.666 4.64 5.462 5.434L13.925 16l-5.357 5.318c-2.947 2.925-5.459 5.44-5.581 5.584-.531.63-.787 1.242-.784 1.882 0 .813.381 1.552 1.219 2.355.365.349.774.65 1.069.784.138.061.256.07 1.085.07h.928l.291-.154c.16-.086.406-.246.544-.358.442-.346 13.574-13.414 13.84-13.77.576-.768.774-1.523.592-2.25a3.651 3.651 0 0 0-.531-1.114c-.218-.298-.781-.864-7.651-7.686C10.293 3.391 7.48.623 7.339.511a4.187 4.187 0 0 0-.544-.358l-.291-.154h-.928c-.829 0-.947.01-1.085.07z"/></symbol><symbol id="icon-Burger" viewBox="0 0 46 32"><path d="M0 2.286v1.143h45.714V1.143H0v1.143zM0 16v1.143h45.714v-2.286H0V16zm0 13.714v1.143h45.714v-2.286H0v1.143z"/></symbol><symbol id="icon-close-about" viewBox="0 0 32 32"><path d="m26.667 7.303-1.97-1.97-7.808 7.808-7.808-7.808-1.97 1.97 7.808 7.808-7.808 7.808 1.97 1.97 7.808-7.808 7.808 7.808 1.97-1.97-7.808-7.808 7.808-7.808z"/></symbol></defs></svg>