<svg aria-hidden="true" style="position: absolute; width: 0; height: 0; overflow: hidden;" version="1.1" xmlns="http://www.w3.org/2000/svg" xmlns:xlink="http://www.w3.org/1999/xlink">
<defs>
<symbol id="icon-logo" viewBox="0 0 32 32">
<path  d="M32 16c0 8.837-7.163 16-16 16s-16-7.163-16-16c0-8.837 7.163-16 16-16s16 7.163 16 16z"></path>
<path  d="M10.24 28.16h1.28v3.84h-1.28v-3.84z"></path>
<path  d="M20.48 28.16h1.28v3.84h-1.28v-3.84z"></path>
<path  d="M10.748 28.8h1.854v-1.28h-1.854v1.28zM19.399 28.8h1.854v-1.28h-1.854v1.28zM19.399 27.52h-6.797v1.28h6.797v-1.28zM10.748 27.52c-1.673 0-3.068-1.411-3.068-3.2h-1.28c0 2.453 1.926 4.48 4.348 4.48v-1.28zM24.32 24.32c0 1.789-1.394 3.2-3.068 3.2v1.28c2.422 0 4.348-2.027 4.348-4.48h-1.28zM24.32 20.316v4.004h1.28v-4.004h-1.28zM7.68 24.32v-4.004h-1.28v4.004h1.28z"></path>
<path  d="M23.29 8.703v0zM8.71 8.703v0zM16 5.76c2.802 0 5.272 1.318 6.778 3.327l1.024-0.768c-1.745-2.33-4.594-3.84-7.802-3.84v1.28zM22.778 9.087c0.972 1.298 1.542 2.884 1.542 4.596h1.28c0-2.003-0.668-3.855-1.798-5.363l-1.024 0.768zM16 4.48c-3.208 0-6.057 1.51-7.802 3.84l1.024 0.768c1.506-2.009 3.976-3.327 6.778-3.327v-1.28zM8.198 8.32c-1.13 1.508-1.798 3.361-1.798 5.363h1.28c0-1.712 0.57-3.298 1.542-4.596l-1.024-0.768zM7.68 14.72v-1.037h-1.28v1.037h1.28zM24.32 13.683v1.037h1.28v-1.037h-1.28zM6.4 14.72v0.96h1.28v-0.96h-1.28zM24.32 14.72v0.96h1.28v-0.96h-1.28z"></path>
<path  d="M22.471 8.027c-1.28 2.486-3.712 4.133-6.471 4.133v1.28c3.294 0 6.136-1.967 7.609-4.827l-1.138-0.586zM16 12.16c-2.759 0-5.191-1.648-6.471-4.133l-1.138 0.586c1.473 2.86 4.315 4.827 7.609 4.827v-1.28z"></path>
<path  d="M6.455 14.884v0zM25.545 14.884v0zM25.545 20.316v0zM6.455 20.316v0zM21.12 20.48v-1.28h-1.28v1.28h1.28zM16.64 20.48h1.28v-1.28h-1.28v1.28zM7.442 16h17.115v-2.56h-17.115v2.56zM7.442 13.44c-0.489 0-0.962 0.082-1.403 0.233l0.832 2.421c0.176-0.061 0.368-0.094 0.571-0.094v-2.56zM6.039 13.673c-1.633 0.561-2.839 2.091-2.839 3.927h2.56c0-0.672 0.443-1.276 1.111-1.506l-0.832-2.421zM24.558 16c0.203 0 0.395 0.034 0.571 0.094l0.832-2.421c-0.441-0.152-0.914-0.233-1.403-0.233v2.56zM25.129 16.094c0.668 0.23 1.111 0.834 1.111 1.506h2.56c0-1.836-1.206-3.365-2.839-3.927l-0.832 2.421zM26.24 17.6c0 0.672-0.443 1.276-1.111 1.506l0.832 2.421c1.633-0.561 2.839-2.091 2.839-3.927h-2.56zM25.129 19.106c-0.176 0.061-0.368 0.094-0.571 0.094v2.56c0.489 0 0.962-0.082 1.403-0.233l-0.832-2.421zM7.442 19.2c-0.203 0-0.395-0.034-0.571-0.094l-0.832 2.421c0.441 0.152 0.914 0.233 1.403 0.233v-2.56zM6.871 19.106c-0.668-0.23-1.111-0.834-1.111-1.506h-2.56c0 1.836 1.206 3.365 2.839 3.927l0.832-2.421zM19.84 20.48v1.371h2.56v-1.371h-2.56zM17.92 21.851v-1.371h-2.56v1.371h2.56zM18.88 23.040c-0.416 0-0.96-0.412-0.96-1.189h-2.56c0 1.95 1.462 3.749 3.52 3.749v-2.56zM19.84 21.851c0 0.776-0.544 1.189-0.96 1.189v2.56c2.058 0 3.52-1.798 3.52-3.749h-2.56zM21.12 21.76h3.438v-2.56h-3.438v2.56zM16.64 19.2h-9.198v2.56h9.198v-2.56z"></path>
</symbol>
<symbol id="icon-arrow-right-btn" viewBox="0 0 32 32">
<path  stroke-linejoin="round" stroke-linecap="round" stroke-miterlimit="4" stroke-width="6.4" d="M8.372 3.2l14.169 12.8-14.169 12.8"></path>
</symbol>
<symbol id="icon-burger" viewBox="0 0 32 32">
<path  stroke-linejoin="miter" stroke-linecap="butt" stroke-miterlimit="4" stroke-width="1.6" d="M0 6.4h32"></path>
<path  stroke-linejoin="miter" stroke-linecap="butt" stroke-miterlimit="4" stroke-width="1.6" d="M0 16h32"></path>
<path  stroke-linejoin="miter" stroke-linecap="butt" stroke-miterlimit="4" stroke-width="1.6" d="M0 25.6h32"></path>
</symbol>
<symbol id="icon-close" viewBox="0 0 32 32">
<path  stroke-linejoin="miter" stroke-linecap="butt" stroke-miterlimit="4" stroke-width="2" d="M2.519 2l26.963 28"></path>
<path  stroke-linejoin="miter" stroke-linecap="butt" stroke-miterlimit="4" stroke-width="2" d="M2 29.481l28-26.963"></path>
</symbol>
<symbol id="icon-facebook" viewBox="0 0 32 32">
<path  d="M16 32c8.837 0 16-7.163 16-16s-7.163-16-16-16c-8.837 0-16 7.163-16 16s7.163 16 16 16z"></path>
<path  d="M20.446 15.981h-2.61v9.619h-3.955v-9.619h-1.881v-3.38h1.881v-2.187c0-1.564 0.739-4.014 3.99-4.014l2.929 0.012v3.281h-2.125c-0.349 0-0.839 0.175-0.839 0.921v1.989h2.955l-0.346 3.377z"></path>
</symbol>
<symbol id="icon-github" viewBox="0 0 32 32">
<path  d="M32 16c0 8.837-7.163 16-16 16s-16-7.163-16-16c0-8.837 7.163-16 16-16s16 7.163 16 16z"></path>
<path  d="M16 6.588c-5.169 0-9.412 4.242-9.412 9.412 0 4.411 3.095 8.419 7.206 9.412v-3.114c-0.407 0.089-0.782 0.092-1.197-0.030-0.556-0.164-1.008-0.535-1.344-1.1-0.214-0.361-0.593-0.752-0.988-0.723l-0.097-1.099c0.855-0.073 1.595 0.521 2.034 1.259 0.195 0.328 0.419 0.52 0.708 0.605 0.278 0.082 0.578 0.043 0.926-0.080 0.088-0.698 0.407-0.959 0.648-1.326v-0.001c-2.451-0.366-3.428-1.666-3.816-2.693-0.514-1.363-0.238-3.066 0.671-4.142 0.018-0.021 0.050-0.076 0.037-0.114-0.417-1.258 0.091-2.299 0.11-2.41 0.481 0.142 0.559-0.143 2.089 0.786l0.264 0.159c0.111 0.066 0.076 0.028 0.186 0.020 0.639-0.173 1.312-0.269 1.975-0.278 0.668 0.009 1.337 0.104 2.002 0.285l0.086 0.009c-0.007-0.001 0.023-0.005 0.075-0.036 1.911-1.157 1.842-0.779 2.355-0.946 0.019 0.111 0.519 1.169 0.107 2.411-0.056 0.171 1.657 1.739 0.708 4.256-0.388 1.027-1.365 2.328-3.816 2.693v0.001c0.314 0.479 0.692 0.734 0.69 1.722v3.887c4.111-0.993 7.206-5 7.206-9.412 0-5.169-4.242-9.412-9.412-9.412v0z"></path>
</symbol>
<symbol id="icon-home" viewBox="0 0 32 32">
<path  d="M31.599 15.443c0.58-0.539 0.524-1.366-0.125-1.846l-14.301-10.577c-0.649-0.48-1.69-0.47-2.325 0.023l-14.35 11.118c-0.635 0.492-0.667 1.318-0.069 1.843l0.36 0.317c0.597 0.525 1.562 0.588 2.154 0.139l1.072-0.812v11.884c0 0.729 0.699 1.319 1.561 1.319h5.594c0.862 0 1.561-0.59 1.561-1.319v-8.314h7.135v8.314c-0.012 0.729 0.604 1.319 1.466 1.319h5.928c0.862 0 1.561-0.59 1.561-1.319v-11.717c0 0 0.296 0.219 0.662 0.491s1.131 0.054 1.711-0.486l0.407-0.378z"></path>
</symbol>
<symbol id="icon-telegram" viewBox="0 0 32 32">
<path  d="M32 16c0 8.837-7.163 16-16 16s-16-7.163-16-16c0-8.837 7.163-16 16-16s16 7.163 16 16z"></path>
<path  d="M12.867 18.375l-0.318 4.169c0.454 0 0.651-0.182 0.887-0.401l2.13-1.9 4.415 3.017c0.81 0.421 1.38 0.199 1.599-0.695l2.898-12.672 0.001-0.001c0.257-1.117-0.433-1.554-1.222-1.28l-17.032 6.086c-1.162 0.421-1.145 1.026-0.198 1.3l4.355 1.264 10.115-5.907c0.476-0.294 0.909-0.131 0.553 0.163l-8.182 6.857z"></path>
</symbol>
<symbol id="icon-arrow-right-ellipce" viewBox="0 0 32 32">
<path d="M19.414 27.414l10-10c0.781-0.781 0.781-2.047 0-2.828l-10-10c-0.781-0.781-2.047-0.781-2.828 0s-0.781 2.047 0 2.828l6.586 6.586h-19.172c-1.105 0-2 0.895-2 2s0.895 2 2 2h19.172l-6.586 6.586c-0.39 0.39-0.586 0.902-0.586 1.414s0.195 1.024 0.586 1.414c0.781 0.781 2.047 0.781 2.828 0z"></path>
</symbol>
<symbol id="icon-close-form" viewBox="0 0 32 32">
<path  d="M16 0c8.837 0 16 7.163 16 16s-7.163 16-16 16c-8.837 0-16-7.163-16-16s7.163-16 16-16z"></path>
<path  stroke-linejoin="miter" stroke-linecap="round" stroke-miterlimit="4" stroke-width="2.2857" d="M9.397 9.143l13.206 13.714"></path>
<path  stroke-linejoin="miter" stroke-linecap="round" stroke-miterlimit="4" stroke-width="2.2857" d="M9.143 22.603l13.714-13.206"></path>
</symbol>
<symbol id="icon-checkbox" viewBox="0 0 32 32">
<path  d="M28.444 0h-24.889c-1.956 0-3.556 1.6-3.556 3.556v24.889c0 1.956 1.6 3.556 3.556 3.556h24.889c1.956 0 3.556-1.6 3.556-3.556v-24.889c0-1.956-1.6-3.556-3.556-3.556z"></path>
<path  d="M7.914 15.503l-0.138-0.131-2.067 1.958 7.282 6.947 15.298-14.594-2.053-1.959-13.245 12.623-5.077-4.844z"></path>
</symbol>
</defs>
</svg>
