<svg aria-hidden="true" style="position: absolute; width: 0; height: 0; overflow: hidden;" version="1.1" xmlns="http://www.w3.org/2000/svg" xmlns:xlink="http://www.w3.org/1999/xlink">
<defs>
<symbol id="icon-arow" viewBox="0 0 32 32">
<path fill="#fff" style="fill: var(--color1, #fff)" d="M32 16c0 8.837-7.163 16-16 16s-16-7.163-16-16c0-8.837 7.163-16 16-16s16 7.163 16 16z"></path>
<path fill="#d41442" style="fill: var(--color2, #d41442)" d="M12.308 15.261h-0.738v1.477h0.738v-1.477zM19.692 16l0.567 0.473c0.228-0.274 0.228-0.672 0-0.945l-0.567 0.473zM17.183 11.835c-0.261-0.313-0.727-0.356-1.040-0.095s-0.356 0.727-0.095 1.040l1.135-0.946zM16.048 19.22c-0.261 0.313-0.219 0.779 0.095 1.040s0.779 0.219 1.040-0.095l-1.135-0.945zM12.308 16.738h7.385v-1.477h-7.385v1.477zM20.26 15.527l-3.077-3.692-1.135 0.946 3.077 3.692 1.135-0.945zM19.125 15.527l-3.077 3.692 1.135 0.945 3.077-3.692-1.135-0.945z"></path>
</symbol>
<symbol id="icon-burger-close" viewBox="0 0 32 32"> <!--задавать не fill, а stroke по умолчание прозрачный стоит -->
<path fill="none"   stroke-linejoin="miter" stroke-linecap="butt" stroke-miterlimit="4" stroke-width="2" d="M2 29.481l28-26.963"></path>
<path fill="none"    stroke-linejoin="miter" stroke-linecap="butt" stroke-miterlimit="4" stroke-width="2" d="M2.519 2l26.963 28"></path>
</symbol>
<symbol id="icon-Burger-open" viewBox="0 0 32 32"><!--задавать не fill, а stroke по умолчание прозрачный стоит-->
<path fill="none" stroke-linejoin="miter" stroke-linecap="butt" stroke-miterlimit="4" stroke-width="1.6" d="M0 6.4h32"></path>
<path fill="none" stroke-linejoin="miter" stroke-linecap="butt" stroke-miterlimit="4" stroke-width="1.6" d="M0 16h32"></path>
<path fill="none" stroke-linejoin="miter" stroke-linecap="butt" stroke-miterlimit="4" stroke-width="1.6" d="M0 25.6h32"></path>
</symbol>
<symbol id="icon-facebook" viewBox="0 0 32 32">
<path d="M15.972 31.515c8.569 0 15.515-6.946 15.515-15.515s-6.946-15.515-15.515-15.515c-8.569 0-15.515 6.946-15.515 15.515s6.946 15.515 15.515 15.515z"></path>
<path fill="#fff" style="fill: var(--color1, #fff)" d="M20.282 15.982h-2.531v9.327h-3.835v-9.327h-1.824v-3.278h1.824v-2.121c0-1.517 0.716-3.892 3.869-3.892l2.841 0.012v3.182h-2.061c-0.338 0-0.813 0.17-0.813 0.893v1.929h2.866l-0.335 3.275z"></path>
</symbol>
<symbol id="icon-github" viewBox="0 0 32 32">
<path  d="M32 16c0 8.837-7.163 16-16 16s-16-7.163-16-16c0-8.837 7.163-16 16-16s16 7.163 16 16z"></path>
<path fill="#fff" style="fill: var(--color1, #fff)" d="M16 6.588c-5.169 0-9.412 4.242-9.412 9.412 0 4.411 3.095 8.418 7.206 9.412v-3.114c-0.407 0.089-0.782 0.092-1.197-0.030-0.556-0.164-1.008-0.535-1.344-1.1-0.214-0.361-0.593-0.752-0.988-0.723l-0.097-1.099c0.855-0.073 1.595 0.521 2.034 1.259 0.195 0.328 0.419 0.52 0.708 0.605 0.278 0.082 0.577 0.043 0.926-0.080 0.088-0.698 0.407-0.959 0.649-1.326v-0c-2.451-0.366-3.428-1.666-3.816-2.693-0.514-1.363-0.238-3.066 0.671-4.142 0.018-0.021 0.050-0.076 0.037-0.114-0.417-1.258 0.091-2.3 0.11-2.41 0.481 0.142 0.559-0.143 2.088 0.786l0.264 0.159c0.111 0.066 0.076 0.028 0.186 0.020 0.639-0.174 1.312-0.269 1.975-0.278 0.668 0.009 1.337 0.104 2.002 0.285l0.086 0.009c-0.008-0.001 0.023-0.005 0.075-0.036 1.911-1.157 1.842-0.779 2.354-0.946 0.018 0.111 0.519 1.169 0.107 2.411-0.056 0.171 1.657 1.739 0.708 4.256-0.388 1.027-1.365 2.328-3.816 2.693v0c0.314 0.479 0.692 0.734 0.69 1.722v3.887c4.111-0.993 7.206-5 7.206-9.412 0-5.169-4.242-9.412-9.412-9.412v0z"></path>
</symbol>
<symbol id="icon-logo" viewBox="0 0 32 32">
<path fill="#d41442" style="fill: var(--color2, #d41442)" d="M32 16c0 8.837-7.163 16-16 16s-16-7.163-16-16c0-8.837 7.163-16 16-16s16 7.163 16 16z"></path>
<path fill="#fff" style="fill: var(--color1, #fff)" d="M10.24 28.16h1.28v3.84h-1.28v-3.84z"></path>
<path fill="#fff" style="fill: var(--color1, #fff)" d="M20.48 28.16h1.28v3.84h-1.28v-3.84z"></path>
<path fill="#fff" style="fill: var(--color1, #fff)" d="M10.748 28.8h1.854v-1.28h-1.854v1.28zM19.399 28.8h1.854v-1.28h-1.854v1.28zM19.399 27.52h-6.797v1.28h6.797v-1.28zM10.748 27.52c-1.673 0-3.068-1.411-3.068-3.2h-1.28c0 2.453 1.926 4.48 4.348 4.48v-1.28zM24.32 24.32c0 1.789-1.394 3.2-3.068 3.2v1.28c2.422 0 4.348-2.027 4.348-4.48h-1.28zM24.32 20.316v4.004h1.28v-4.004h-1.28zM7.68 24.32v-4.004h-1.28v4.004h1.28z"></path>
<path fill="#fff" style="fill: var(--color1, #fff)" d="M23.29 8.703v0zM8.71 8.703v0zM16 5.76c2.802 0 5.272 1.318 6.778 3.327l1.024-0.768c-1.745-2.33-4.594-3.84-7.802-3.84v1.28zM22.778 9.087c0.972 1.298 1.542 2.884 1.542 4.596h1.28c0-2.003-0.668-3.855-1.798-5.363l-1.024 0.768zM16 4.48c-3.208 0-6.057 1.51-7.802 3.84l1.024 0.768c1.506-2.009 3.976-3.327 6.778-3.327v-1.28zM8.198 8.32c-1.13 1.508-1.798 3.361-1.798 5.363h1.28c0-1.712 0.57-3.298 1.542-4.596l-1.024-0.768zM7.68 14.72v-1.037h-1.28v1.037h1.28zM24.32 13.683v1.037h1.28v-1.037h-1.28zM6.4 14.72v0.96h1.28v-0.96h-1.28zM24.32 14.72v0.96h1.28v-0.96h-1.28z"></path>
<path fill="#fff" style="fill: var(--color1, #fff)" d="M22.471 8.027c-1.28 2.486-3.712 4.133-6.471 4.133v1.28c3.294 0 6.136-1.967 7.609-4.827l-1.138-0.586zM16 12.16c-2.759 0-5.191-1.648-6.471-4.133l-1.138 0.586c1.473 2.86 4.315 4.827 7.609 4.827v-1.28z"></path>
<path fill="#fff" style="fill: var(--color1, #fff)" d="M6.455 14.884v0zM25.545 14.884v0zM25.545 20.316v0zM6.455 20.316v0zM21.12 20.48v-1.28h-1.28v1.28h1.28zM16.64 20.48h1.28v-1.28h-1.28v1.28zM7.442 16h17.115v-2.56h-17.115v2.56zM7.442 13.44c-0.489 0-0.962 0.082-1.403 0.233l0.832 2.421c0.176-0.061 0.368-0.094 0.571-0.094v-2.56zM6.039 13.673c-1.633 0.561-2.839 2.091-2.839 3.927h2.56c0-0.672 0.443-1.276 1.111-1.506l-0.832-2.421zM24.558 16c0.203 0 0.395 0.034 0.571 0.094l0.832-2.421c-0.441-0.152-0.914-0.233-1.403-0.233v2.56zM25.129 16.094c0.668 0.23 1.111 0.834 1.111 1.506h2.56c0-1.836-1.206-3.365-2.839-3.927l-0.832 2.421zM26.24 17.6c0 0.672-0.443 1.276-1.111 1.506l0.832 2.421c1.633-0.561 2.839-2.091 2.839-3.927h-2.56zM25.129 19.106c-0.176 0.061-0.368 0.094-0.571 0.094v2.56c0.489 0 0.962-0.082 1.403-0.233l-0.832-2.421zM7.442 19.2c-0.203 0-0.395-0.034-0.571-0.094l-0.832 2.421c0.441 0.152 0.914 0.233 1.403 0.233v-2.56zM6.871 19.106c-0.668-0.23-1.111-0.834-1.111-1.506h-2.56c0 1.836 1.206 3.365 2.839 3.927l0.832-2.421zM19.84 20.48v1.371h2.56v-1.371h-2.56zM17.92 21.851v-1.371h-2.56v1.371h2.56zM18.88 23.040c-0.416 0-0.96-0.412-0.96-1.189h-2.56c0 1.95 1.462 3.749 3.52 3.749v-2.56zM19.84 21.851c0 0.776-0.544 1.189-0.96 1.189v2.56c2.058 0 3.52-1.798 3.52-3.749h-2.56zM21.12 21.76h3.438v-2.56h-3.438v2.56zM16.64 19.2h-9.198v2.56h9.198v-2.56z"></path>
</symbol>
<symbol id="icon-slider-house" viewBox="0 0 32 32">
<path fill="#d31342" style="fill: var(--color5, #d31342)" d="M30.129 15.447c0.553-0.6 0.5-1.52-0.119-2.054l-13.636-11.77c-0.619-0.534-1.611-0.523-2.217 0.025l-13.682 12.372c-0.606 0.548-0.636 1.466-0.066 2.051l0.343 0.352c0.569 0.584 1.489 0.654 2.053 0.155l1.023-0.903v13.224c0 0.811 0.667 1.468 1.488 1.468h5.333c0.822 0 1.488-0.657 1.488-1.468v-9.252h6.803v9.252c-0.012 0.811 0.576 1.468 1.398 1.468h5.652c0.822 0 1.488-0.657 1.488-1.468v-13.038c0 0 0.282 0.244 0.631 0.546s1.078 0.060 1.631-0.541l0.388-0.42z"></path>
</symbol>
<symbol id="icon-telegram" viewBox="0 0 32 32">
<path d="M31.258 16c0 8.569-6.946 15.515-15.515 15.515s-15.515-6.946-15.515-15.515c0-8.569 6.946-15.515 15.515-15.515s15.515 6.946 15.515 15.515z"></path>
<path fill="#fff" style="fill: var(--color1, #fff)" d="M12.705 18.303l-0.308 4.043c0.441 0 0.631-0.177 0.86-0.389l2.066-1.843 4.281 2.926c0.785 0.408 1.338 0.193 1.55-0.674l2.811-12.289c0.249-1.083-0.42-1.507-1.185-1.241l-16.516 5.902c-1.127 0.408-1.11 0.995-0.192 1.261l4.223 1.226 9.808-5.728c0.462-0.285 0.881-0.127 0.536 0.158l-7.934 6.649z"></path>
</symbol>
<symbol id="icon-Vector" viewBox="0 0 32 32"><!--задавать не fill, а stroke по умолчание прозрачный стоит-->
<path fill="none"   stroke-linejoin="round" stroke-linecap="round" stroke-miterlimit="4" stroke-width="6.4" d="M9.345 3.2l13.7 12.8-13.7 12.8"></path>
</symbol>
<symbol id="icon-close" viewBox="0 0 32 32">
<path d="M26.667 7.303l-1.97-1.97-7.808 7.808-7.808-7.808-1.97 1.97 7.808 7.808-7.808 7.808 1.97 1.97 7.808-7.808 7.808 7.808 1.97-1.97-7.808-7.808 7.808-7.808z"></path>
</symbol>
</defs>
</svg>



